<svg width="89" height="45" viewBox="0 0 89 45" fill="none" xmlns="http://www.w3.org/2000/svg">
<g filter="url(#filter0_d_39_558)">
<path d="M9.59866 36.6297L9.73793 35.3391H9.68222L9.28298 36.379L7.89956 38.8023H7.49104L6.03334 36.3697L5.62482 35.3391H5.57839L5.76409 36.6204V40H4.55708V33.5007H5.71766L7.4539 36.4718L7.76029 37.2146H7.79743L8.07597 36.4533L9.71936 33.5007H10.8707V40H9.59866V36.6297ZM11.9273 35.6269C12.1749 35.5155 12.4689 35.4288 12.8093 35.3669C13.1498 35.2989 13.5057 35.2648 13.8771 35.2648C14.1989 35.2648 14.4682 35.3051 14.6848 35.3855C14.9015 35.4598 15.0717 35.5681 15.1955 35.7105C15.3255 35.8528 15.4152 36.0231 15.4648 36.2211C15.5205 36.4192 15.5483 36.642 15.5483 36.8896C15.5483 37.162 15.539 37.4374 15.5205 37.716C15.5019 37.9883 15.4895 38.2576 15.4833 38.5237C15.4833 38.7899 15.4926 39.0499 15.5112 39.3036C15.5297 39.5512 15.5762 39.7865 15.6504 40.0093H14.6663L14.4713 39.3686H14.4249C14.3011 39.5605 14.1278 39.7276 13.9049 39.87C13.6883 40.0062 13.4067 40.0743 13.06 40.0743C12.8434 40.0743 12.6484 40.0433 12.4751 39.9814C12.3018 39.9133 12.1532 39.8205 12.0294 39.7029C11.9056 39.5791 11.8097 39.4367 11.7416 39.2758C11.6735 39.1087 11.6395 38.923 11.6395 38.7187C11.6395 38.434 11.7014 38.1957 11.8252 38.0038C11.9552 37.8057 12.1377 37.6479 12.373 37.5303C12.6144 37.4065 12.8991 37.3229 13.2272 37.2796C13.5614 37.2301 13.9328 37.2146 14.3413 37.2332C14.3846 36.8865 14.3599 36.6389 14.267 36.4904C14.1742 36.3356 13.9668 36.2583 13.645 36.2583C13.4036 36.2583 13.1467 36.283 12.8743 36.3326C12.6082 36.3821 12.3884 36.4471 12.2151 36.5275L11.9273 35.6269ZM13.4593 39.0808C13.7007 39.0808 13.8926 39.0282 14.0349 38.923C14.1773 38.8116 14.2825 38.694 14.3506 38.5702V37.9667C14.1587 37.9481 13.973 37.945 13.7935 37.9574C13.6202 37.9698 13.4655 37.9976 13.3293 38.0409C13.1931 38.0843 13.0848 38.1462 13.0043 38.2266C12.9239 38.3071 12.8836 38.4092 12.8836 38.533C12.8836 38.7063 12.9331 38.8425 13.0322 38.9415C13.1374 39.0344 13.2798 39.0808 13.4593 39.0808ZM20.5072 38.3659C20.5072 38.6259 20.5103 38.8858 20.5165 39.1458C20.5227 39.4058 20.5505 39.6936 20.6001 40.0093H19.7366L19.5695 39.4058H19.5323C19.4085 39.6224 19.229 39.7988 18.9938 39.935C18.7648 40.065 18.4924 40.13 18.1768 40.13C17.5949 40.13 17.1431 39.9381 16.8212 39.5543C16.4993 39.1706 16.3384 38.5702 16.3384 37.7531C16.3384 36.9608 16.5179 36.3449 16.8769 35.9055C17.2359 35.466 17.762 35.2462 18.4553 35.2462C18.6472 35.2462 18.805 35.2586 18.9288 35.2834C19.0526 35.302 19.1764 35.336 19.3002 35.3855V33.5007H20.5072V38.3659ZM18.4553 39.1087C18.6905 39.1087 18.8762 39.053 19.0124 38.9415C19.1485 38.8239 19.2445 38.6568 19.3002 38.4402V36.4718C19.2135 36.4037 19.1176 36.3542 19.0124 36.3233C18.9071 36.2861 18.771 36.2676 18.6038 36.2676C18.2634 36.2676 18.0065 36.3821 17.8332 36.6111C17.6661 36.8401 17.5825 37.2332 17.5825 37.7902C17.5825 38.1864 17.6506 38.5052 17.7868 38.7466C17.9292 38.988 18.152 39.1087 18.4553 39.1087ZM25.2801 39.6008C25.0944 39.7493 24.8406 39.8762 24.5188 39.9814C24.2031 40.0805 23.8657 40.13 23.5067 40.13C22.7578 40.13 22.21 39.9133 21.8633 39.4801C21.5167 39.0406 21.3434 38.4402 21.3434 37.6788C21.3434 36.8618 21.5384 36.249 21.9283 35.8405C22.3183 35.4319 22.8661 35.2277 23.5717 35.2277C23.8069 35.2277 24.036 35.2586 24.2588 35.3205C24.4816 35.3824 24.6797 35.4846 24.853 35.6269C25.0263 35.7693 25.1656 35.9612 25.2708 36.2026C25.376 36.444 25.4287 36.7442 25.4287 37.1032C25.4287 37.2332 25.4194 37.3724 25.4008 37.521C25.3884 37.6695 25.3668 37.8243 25.3358 37.9852H22.5504C22.569 38.3752 22.668 38.6692 22.8475 38.8673C23.0332 39.0653 23.3303 39.1644 23.7388 39.1644C23.9926 39.1644 24.2186 39.1272 24.4166 39.053C24.6209 38.9725 24.7756 38.892 24.8809 38.8116L25.2801 39.6008ZM23.5532 36.1933C23.2375 36.1933 23.0023 36.2892 22.8475 36.4811C22.699 36.6668 22.6092 36.9175 22.5783 37.2332H24.3052C24.33 36.8989 24.2774 36.642 24.1474 36.4625C24.0236 36.283 23.8255 36.1933 23.5532 36.1933ZM28.7409 35.3577H29.9479V40H28.7409V35.3577ZM28.5645 34.0485C28.5645 33.869 28.6295 33.7174 28.7595 33.5936C28.8956 33.4636 29.0813 33.3986 29.3165 33.3986C29.5518 33.3986 29.7405 33.4636 29.8829 33.5936C30.0315 33.7174 30.1057 33.869 30.1057 34.0485C30.1057 34.228 30.0315 34.3797 29.8829 34.5035C29.7405 34.6211 29.5518 34.6799 29.3165 34.6799C29.0813 34.6799 28.8956 34.6211 28.7595 34.5035C28.6295 34.3797 28.5645 34.228 28.5645 34.0485ZM33.964 40V37.3632C33.964 36.9856 33.9083 36.7132 33.7969 36.5461C33.6917 36.379 33.5091 36.2954 33.2491 36.2954C33.0201 36.2954 32.8251 36.3635 32.6642 36.4997C32.5094 36.6297 32.398 36.7937 32.3299 36.9918V40H31.1229V35.3577H32.0792L32.2185 35.9705H32.2556C32.398 35.7724 32.5868 35.5991 32.822 35.4505C33.0572 35.302 33.3605 35.2277 33.7319 35.2277C33.9609 35.2277 34.1652 35.2586 34.3447 35.3205C34.5242 35.3824 34.6759 35.4846 34.7996 35.6269C34.9234 35.7693 35.0163 35.9643 35.0782 36.2119C35.1401 36.4533 35.171 36.7535 35.171 37.1125V40H33.964ZM41.3625 38.2545C41.3625 38.0564 41.2883 37.8955 41.1397 37.7717C40.9973 37.6479 40.8147 37.5365 40.5919 37.4374C40.3753 37.3322 40.137 37.227 39.877 37.1218C39.6232 37.0103 39.3849 36.8773 39.1621 36.7225C38.9454 36.5616 38.7628 36.3635 38.6143 36.1283C38.4719 35.8931 38.4007 35.5929 38.4007 35.2277C38.4007 34.912 38.4533 34.6396 38.5586 34.4106C38.6638 34.1754 38.8123 33.9804 39.0042 33.8257C39.2023 33.6709 39.4344 33.5564 39.7006 33.4822C39.9667 33.4079 40.2638 33.3707 40.5919 33.3707C40.9695 33.3707 41.3254 33.4048 41.6596 33.4729C41.9939 33.5348 42.2693 33.6276 42.486 33.7514L42.0867 34.8192C41.9506 34.7325 41.7463 34.6551 41.474 34.587C41.2016 34.5128 40.9076 34.4756 40.5919 34.4756C40.2948 34.4756 40.0658 34.5344 39.9048 34.652C39.7501 34.7696 39.6727 34.9275 39.6727 35.1255C39.6727 35.3112 39.7439 35.466 39.8863 35.5898C40.0348 35.7136 40.2174 35.8281 40.4341 35.9333C40.6569 36.0385 40.8952 36.1469 41.149 36.2583C41.409 36.3697 41.6473 36.5059 41.8639 36.6668C42.0867 36.8215 42.2693 37.0165 42.4117 37.2517C42.5603 37.4808 42.6345 37.7686 42.6345 38.1152C42.6345 38.4618 42.5757 38.762 42.4581 39.0158C42.3467 39.2634 42.1858 39.4708 41.9753 39.6379C41.7711 39.805 41.5204 39.9288 41.2233 40.0093C40.9323 40.0898 40.6105 40.13 40.2577 40.13C39.7934 40.13 39.3849 40.0867 39.0321 40C38.6793 39.9133 38.4193 39.8267 38.2522 39.74L38.6607 38.6537C38.7288 38.6909 38.8154 38.7311 38.9207 38.7744C39.0321 38.8178 39.1559 38.858 39.2921 38.8951C39.4282 38.9323 39.5706 38.9632 39.7191 38.988C39.8739 39.0127 40.0317 39.0251 40.1927 39.0251C40.5702 39.0251 40.8581 38.9632 41.0561 38.8394C41.2604 38.7094 41.3625 38.5145 41.3625 38.2545ZM46.8152 35.3577L47.6601 37.7345L47.8272 38.5052H47.8643L47.9943 37.7253L48.5885 35.3577H49.6934L48.2636 40.0464H47.3723L46.4345 37.4467L46.3138 36.8618H46.2674L46.156 37.456L45.2646 40.0464H44.3455L42.8506 35.3577H44.1598L44.8375 37.6881L44.949 38.5145H44.9954L45.1532 37.6788L45.9238 35.3577H46.8152ZM50.257 35.3577H51.464V40H50.257V35.3577ZM50.0806 34.0485C50.0806 33.869 50.1456 33.7174 50.2756 33.5936C50.4118 33.4636 50.5975 33.3986 50.8327 33.3986C51.0679 33.3986 51.2567 33.4636 51.399 33.5936C51.5476 33.7174 51.6219 33.869 51.6219 34.0485C51.6219 34.228 51.5476 34.3797 51.399 34.5035C51.2567 34.6211 51.0679 34.6799 50.8327 34.6799C50.5975 34.6799 50.4118 34.6211 50.2756 34.5035C50.1456 34.3797 50.0806 34.228 50.0806 34.0485ZM52.1563 35.3577H52.7969V34.4849L54.0039 34.1414V35.3577H55.1366V36.379H54.0039V38.1616C54.0039 38.4835 54.0349 38.7156 54.0968 38.858C54.1648 38.9942 54.2886 39.0622 54.4681 39.0622C54.5919 39.0622 54.6972 39.0499 54.7838 39.0251C54.8767 39.0004 54.9788 38.9632 55.0902 38.9137L55.3038 39.8422C55.1366 39.9226 54.9417 39.9907 54.7188 40.0464C54.496 40.1021 54.2701 40.13 54.041 40.13C53.6139 40.13 53.2983 40.0217 53.094 39.805C52.8959 39.5822 52.7969 39.2201 52.7969 38.7187V36.379H52.1563V35.3577ZM55.6346 38.9787L57.4637 36.7782L57.9372 36.379H55.6346V35.3577H59.2742V36.379L57.4637 38.6166L56.9994 38.9787H59.2742V40H55.6346V38.9787ZM63.7698 39.6008C63.5841 39.7493 63.3303 39.8762 63.0084 39.9814C62.6928 40.0805 62.3554 40.13 61.9964 40.13C61.2474 40.13 60.6997 39.9133 60.353 39.4801C60.0064 39.0406 59.8331 38.4402 59.8331 37.6788C59.8331 36.8618 60.0281 36.249 60.418 35.8405C60.808 35.4319 61.3558 35.2277 62.0614 35.2277C62.2966 35.2277 62.5256 35.2586 62.7485 35.3205C62.9713 35.3824 63.1694 35.4846 63.3427 35.6269C63.516 35.7693 63.6553 35.9612 63.7605 36.2026C63.8657 36.444 63.9183 36.7442 63.9183 37.1032C63.9183 37.2332 63.9091 37.3724 63.8905 37.521C63.8781 37.6695 63.8564 37.8243 63.8255 37.9852H61.0401C61.0587 38.3752 61.1577 38.6692 61.3372 38.8673C61.5229 39.0653 61.82 39.1644 62.2285 39.1644C62.4823 39.1644 62.7082 39.1272 62.9063 39.053C63.1106 38.9725 63.2653 38.892 63.3705 38.8116L63.7698 39.6008ZM62.0428 36.1933C61.7272 36.1933 61.4919 36.2892 61.3372 36.4811C61.1886 36.6668 61.0989 36.9175 61.0679 37.2332H62.7949C62.8197 36.8989 62.767 36.642 62.6371 36.4625C62.5133 36.283 62.3152 36.1933 62.0428 36.1933ZM67.3334 36.4904C67.1415 36.4223 66.9682 36.3883 66.8134 36.3883C66.5968 36.3883 66.4142 36.4471 66.2656 36.5647C66.1233 36.6761 66.0273 36.8215 65.9778 37.0011V40H64.7708V35.3577H65.7085L65.8478 35.9705H65.8849C65.9902 35.7414 66.1325 35.565 66.312 35.4412C66.4915 35.3174 66.702 35.2555 66.9434 35.2555C67.1043 35.2555 67.2869 35.2896 67.4912 35.3577L67.3334 36.4904ZM69.27 38.4402C69.27 38.6568 69.2979 38.8147 69.3536 38.9137C69.4093 39.0127 69.499 39.0622 69.6228 39.0622C69.6971 39.0622 69.7683 39.0561 69.8364 39.0437C69.9107 39.0313 70.0004 39.0034 70.1056 38.9601L70.2356 39.9072C70.1366 39.9567 69.9849 40.0062 69.7807 40.0557C69.5764 40.1052 69.3659 40.13 69.1493 40.13C68.7965 40.13 68.5272 40.0495 68.3415 39.8886C68.1558 39.7215 68.063 39.4491 68.063 39.0715V33.5007H69.27V38.4402ZM70.7272 35.6269C70.9748 35.5155 71.2688 35.4288 71.6092 35.3669C71.9497 35.2989 72.3056 35.2648 72.677 35.2648C72.9988 35.2648 73.2681 35.3051 73.4847 35.3855C73.7014 35.4598 73.8716 35.5681 73.9954 35.7105C74.1254 35.8528 74.2151 36.0231 74.2647 36.2211C74.3204 36.4192 74.3482 36.642 74.3482 36.8896C74.3482 37.162 74.3389 37.4374 74.3204 37.716C74.3018 37.9883 74.2894 38.2576 74.2832 38.5237C74.2832 38.7899 74.2925 39.0499 74.3111 39.3036C74.3296 39.5512 74.3761 39.7865 74.4503 40.0093H73.4662L73.2712 39.3686H73.2248C73.101 39.5605 72.9277 39.7276 72.7048 39.87C72.4882 40.0062 72.2066 40.0743 71.8599 40.0743C71.6433 40.0743 71.4483 40.0433 71.275 39.9814C71.1017 39.9133 70.9531 39.8205 70.8293 39.7029C70.7055 39.5791 70.6096 39.4367 70.5415 39.2758C70.4734 39.1087 70.4394 38.923 70.4394 38.7187C70.4394 38.434 70.5013 38.1957 70.6251 38.0038C70.755 37.8057 70.9376 37.6479 71.1729 37.5303C71.4143 37.4065 71.699 37.3229 72.027 37.2796C72.3613 37.2301 72.7327 37.2146 73.1412 37.2332C73.1845 36.8865 73.1598 36.6389 73.0669 36.4904C72.9741 36.3356 72.7667 36.2583 72.4449 36.2583C72.2035 36.2583 71.9466 36.283 71.6742 36.3326C71.4081 36.3821 71.1883 36.4471 71.015 36.5275L70.7272 35.6269ZM72.2592 39.0808C72.5006 39.0808 72.6925 39.0282 72.8348 38.923C72.9772 38.8116 73.0824 38.694 73.1505 38.5702V37.9667C72.9586 37.9481 72.7729 37.945 72.5934 37.9574C72.4201 37.9698 72.2654 37.9976 72.1292 38.0409C71.993 38.0843 71.8847 38.1462 71.8042 38.2266C71.7237 38.3071 71.6835 38.4092 71.6835 38.533C71.6835 38.7063 71.733 38.8425 71.8321 38.9415C71.9373 39.0344 72.0797 39.0808 72.2592 39.0808ZM78.2022 40V37.3632C78.2022 36.9856 78.1465 36.7132 78.0351 36.5461C77.9299 36.379 77.7473 36.2954 77.4873 36.2954C77.2583 36.2954 77.0633 36.3635 76.9024 36.4997C76.7476 36.6297 76.6362 36.7937 76.5681 36.9918V40H75.3611V35.3577H76.3174L76.4567 35.9705H76.4939C76.6362 35.7724 76.825 35.5991 77.0602 35.4505C77.2954 35.302 77.5987 35.2277 77.9701 35.2277C78.1991 35.2277 78.4034 35.2586 78.5829 35.3205C78.7624 35.3824 78.9141 35.4846 79.0379 35.6269C79.1616 35.7693 79.2545 35.9643 79.3164 36.2119C79.3783 36.4533 79.4092 36.7535 79.4092 37.1125V40H78.2022ZM84.3665 38.3659C84.3665 38.6259 84.3696 38.8858 84.3758 39.1458C84.382 39.4058 84.4099 39.6936 84.4594 40.0093H83.5959L83.4288 39.4058H83.3916C83.2678 39.6224 83.0883 39.7988 82.8531 39.935C82.6241 40.065 82.3517 40.13 82.0361 40.13C81.4542 40.13 81.0024 39.9381 80.6805 39.5543C80.3586 39.1706 80.1977 38.5702 80.1977 37.7531C80.1977 36.9608 80.3772 36.3449 80.7362 35.9055C81.0952 35.466 81.6214 35.2462 82.3146 35.2462C82.5065 35.2462 82.6643 35.2586 82.7881 35.2834C82.9119 35.302 83.0357 35.336 83.1595 35.3855V33.5007H84.3665V38.3659ZM82.3146 39.1087C82.5498 39.1087 82.7355 39.053 82.8717 38.9415C83.0079 38.8239 83.1038 38.6568 83.1595 38.4402V36.4718C83.0729 36.4037 82.9769 36.3542 82.8717 36.3233C82.7665 36.2861 82.6303 36.2676 82.4632 36.2676C82.1227 36.2676 81.8659 36.3821 81.6925 36.6111C81.5254 36.8401 81.4419 37.2332 81.4419 37.7902C81.4419 38.1864 81.5099 38.5052 81.6461 38.7466C81.7885 38.988 82.0113 39.1087 82.3146 39.1087Z" fill="black"/>
</g>
<path d="M58.6277 28.6277H30V0H58.6277V28.6277Z" fill="#DB0819"/>
<path d="M47.1767 11.4511V4.76219H41.4511V11.4511H34.769V17.1767H41.4511V23.8519H47.1767V17.1767H53.8588V11.4511H47.1767Z" fill="white"/>
<defs>
<filter id="filter0_d_39_558" x="0.557129" y="29.3707" width="87.9023" height="14.7592" filterUnits="userSpaceOnUse" color-interpolation-filters="sRGB">
<feFlood flood-opacity="0" result="BackgroundImageFix"/>
<feColorMatrix in="SourceAlpha" type="matrix" values="0 0 0 0 0 0 0 0 0 0 0 0 0 0 0 0 0 0 127 0" result="hardAlpha"/>
<feOffset/>
<feGaussianBlur stdDeviation="2"/>
<feComposite in2="hardAlpha" operator="out"/>
<feColorMatrix type="matrix" values="0 0 0 0 0 0 0 0 0 0 0 0 0 0 0 0 0 0 0.25 0"/>
<feBlend mode="normal" in2="BackgroundImageFix" result="effect1_dropShadow_39_558"/>
<feBlend mode="normal" in="SourceGraphic" in2="effect1_dropShadow_39_558" result="shape"/>
</filter>
</defs>
</svg>
